<?xml version="1.0" encoding="UTF-8"?>
<svg version="1.1" xmlns="http://www.w3.org/2000/svg" width="480" height="480">
<path d="M0 0 C1.53380162 1.31839463 3.05486994 2.65175544 4.5625 4 C5.37847656 4.68578125 6.19445312 5.3715625 7.03515625 6.078125 C30.0744613 25.87697138 43.84861255 54.89044015 46.5625 85 C48.58338265 117.98431936 40.07806165 150.19110507 17.98779297 175.40771484 C-3.46396336 199.37283214 -32.0143745 214.58036377 -64.4375 217 C-67.4075 217 -70.3775 217 -73.4375 217 C-73.4375 201.82 -73.4375 186.64 -73.4375 171 C-88.6175 171 -103.7975 171 -119.4375 171 C-119.4375 182.55 -119.4375 194.1 -119.4375 206 C-131.3175 206 -143.1975 206 -155.4375 206 C-155.4375 194.45 -155.4375 182.9 -155.4375 171 C-165.3375 171 -175.2375 171 -185.4375 171 C-185.4375 160.77 -185.4375 150.54 -185.4375 140 C-175.2075 140 -164.9775 140 -154.4375 140 C-154.4375 149.9 -154.4375 159.8 -154.4375 170 C-143.2175 170 -131.9975 170 -120.4375 170 C-120.4375 154.82 -120.4375 139.64 -120.4375 124 C-104.5975 124 -88.7575 124 -72.4375 124 C-72.4375 138.85 -72.4375 153.7 -72.4375 169 C-57.48972469 167.00696329 -44.80168706 164.75450829 -32.4375 156 C-31.60734375 155.41476563 -30.7771875 154.82953125 -29.921875 154.2265625 C-14.36035315 142.53155375 -4.68335026 125.1439701 -1.75 106 C-1.62383608 104.66856801 -1.52092448 103.33479168 -1.4375 102 C-1.38464844 101.21625 -1.33179688 100.4325 -1.27734375 99.625 C-0.61609255 80.30496484 -7.27296451 61.99206328 -19.71875 47.30859375 C-33.17176737 33.00384313 -51.68402656 25.34486027 -71.19238281 24.71655273 C-92.35170906 24.41779148 -110.30367494 32.29898012 -125.625 46.6875 C-139.57604338 61.19215621 -143.16493652 77.36461913 -146.4375 97 C-161.9475 97 -177.4575 97 -193.4375 97 C-193.4375 82.88096204 -193.4375 82.88096204 -192.25 76.1875 C-192.1161792 75.42324707 -191.9823584 74.65899414 -191.84448242 73.87158203 C-186.19490703 43.54957126 -167.86287752 15.39839111 -142.61279297 -2.27734375 C-100.65554237 -30.22652052 -40.61528617 -31.90747051 0 0 Z " fill="#007FFF" transform="translate(313.4375,84)"/>
<path d="M0 0 C6.56990786 6.09765233 10.14608875 13.55471168 11.09765625 22.46484375 C11.34276435 31.75171745 8.70524183 39.31612033 2.59765625 46.33984375 C1.77265625 47.04109375 0.94765625 47.74234375 0.09765625 48.46484375 C-0.68609375 49.16609375 -1.46984375 49.86734375 -2.27734375 50.58984375 C-9.11587159 55.47450649 -16.59570693 57.24903674 -24.90234375 56.46484375 C-34.01494763 54.73050946 -41.83919108 50.82737202 -47.27734375 43.15234375 C-52.14280656 35.08378459 -54.31452474 27.21875286 -52.36328125 17.88671875 C-49.66860483 7.99636794 -44.02894765 0.7726749 -35.19140625 -4.45703125 C-23.7984398 -9.8230018 -9.73530854 -7.85621408 0 0 Z M-36.90234375 12.46484375 C-40.55301349 16.87082447 -41.01302392 21.8967797 -40.90234375 27.46484375 C-39.9623906 33.63535974 -36.72970074 37.24137304 -31.9375 41.05078125 C-26.77893357 44.6350443 -22.35794888 44.79057485 -16.296875 44 C-10.18010508 42.6329568 -6.40279636 38.42381828 -2.90234375 33.46484375 C-0.81958634 28.35262102 -0.36075524 23.7792673 -1.90234375 18.46484375 C-4.60956329 12.1635569 -8.61152335 8.1842522 -14.90234375 5.46484375 C-23.67233368 2.72315758 -30.71292611 6.41936606 -36.90234375 12.46484375 Z " fill="#007FFF" transform="translate(294.90234375,346.53515625)"/>
<path d="M0 0 C36.77528626 0 36.77528626 0 45.56640625 8.28515625 C52.90330963 17.06145211 52.9430084 28.12029137 52 39 C51.16723148 42.44874789 49.97354079 45.06919358 48 48 C47.34 49.051875 46.68 50.10375 46 51.1875 C40.73247758 57.06218232 32.5015835 59.74973608 25 61 C16.75 61 8.5 61 0 61 C0 40.87 0 20.74 0 0 Z M12 11 C12 23.87 12 36.74 12 50 C24.9873353 50.1012308 24.9873353 50.1012308 36 44 C39.71753363 37.84684089 40.647337 32.08474381 40 25 C38.28237299 19.27457662 35.91603573 16.37375001 31 13 C23.99861207 10.31483984 23.99861207 10.31483984 12 11 Z " fill="#0080FF" transform="translate(1,341)"/>
<path d="M0 0 C0 -0.66 0 -1.32 0 -2 C3.96 -2 7.92 -2 12 -2 C12.07438177 4.28049148 12.12871203 10.56072421 12.16479492 16.84155273 C12.17984362 18.97636382 12.20028736 21.11114419 12.22631836 23.24584961 C12.26287386 26.32152914 12.2797659 29.39679844 12.29296875 32.47265625 C12.30845261 33.42084732 12.32393646 34.36903839 12.33988953 35.34596252 C12.34172746 42.6492853 10.93486578 47.12534227 6.8125 53.25 C1.91756683 58.03615688 -2.80124817 59.15240735 -9.5625 59.375 C-17.93765719 59.09775342 -23.08287884 55.55741775 -29 50 C-27.1144852 45.71640327 -24.64034299 43.84896408 -21 41 C-20.59910156 41.433125 -20.19820312 41.86625 -19.78515625 42.3125 C-16.39667759 45.63182603 -14.11044094 47.4295451 -9.25 47.4375 C-6.53302899 47.28075167 -4.61678652 46.87226217 -2 46 C-0.77030122 42.48809191 -0.77030122 42.48809191 0 39 C-1.2684375 39.495 -1.2684375 39.495 -2.5625 40 C-9.33715185 41.97080781 -14.81824659 41.12857032 -21 38 C-24.89226068 35.60678566 -27.92406476 32.65906569 -29.52734375 28.28125 C-31.0839258 20.76849037 -31.35841408 12.32611184 -27.26171875 5.61328125 C-20.36132876 -3.20981802 -9.76698453 -5.71725924 0 0 Z M-16 11 C-18.82368571 15.23552856 -18.66653757 19.02477314 -18 24 C-16.20353146 26.93423195 -15.0558929 28.47205355 -12 30 C-7.91944957 30.55643869 -6.25948881 30.15667249 -2.6875 28 C0.20420334 25.31375979 0.96952765 22.88751286 1.16796875 18.9921875 C0.89330037 15.73449277 -0.14361249 13.6608221 -2 11 C-7.1342962 7.05054138 -10.80008304 7.30532216 -16 11 Z " fill="#0080FF" transform="translate(109,360)"/>
<path d="M0 0 C4.33342241 3.91064949 6.71882947 7.55178805 7.5625 13.3125 C7.64250751 15.58867069 7.67018953 17.86697696 7.66015625 20.14453125 C7.65693359 21.43681641 7.65371094 22.72910156 7.65039062 24.06054688 C7.64203665 25.41536526 7.63357172 26.77018297 7.625 28.125 C7.61998 29.49934735 7.61541797 30.87369645 7.61132812 32.24804688 C7.59955668 35.60290924 7.58311283 38.95768221 7.5625 42.3125 C3.6025 42.3125 -0.3575 42.3125 -4.4375 42.3125 C-4.7675 41.6525 -5.0975 40.9925 -5.4375 40.3125 C-6.406875 40.828125 -7.37625 41.34375 -8.375 41.875 C-12.88194364 43.80393531 -16.74102596 43.45345132 -21.4375 42.3125 C-25.99714059 40.38731842 -28.2004264 37.70379262 -30.4375 33.3125 C-31.17208784 29.22329438 -30.66032859 25.99409334 -29.375 22.0625 C-26.20095512 17.55740405 -21.85019922 15.3683864 -16.4375 14.3125 C-14.91873046 14.22300578 -13.39639529 14.18235145 -11.875 14.1875 C-10.72837891 14.18363281 -10.72837891 14.18363281 -9.55859375 14.1796875 C-7.4375 14.3125 -7.4375 14.3125 -4.4375 15.3125 C-6.19204385 12.13015895 -6.19204385 12.13015895 -8.4375 9.3125 C-11.73853673 8.92414274 -14.32814506 8.62277062 -17.234375 10.4296875 C-18.69280213 11.65893322 -20.07224003 12.98053905 -21.4375 14.3125 C-24.80341866 12.86996343 -26.94797079 10.97985273 -29.4375 8.3125 C-28.53078488 4.34562134 -26.93185622 2.6985672 -23.625 0.5625 C-16.40568848 -3.85007725 -7.50774878 -3.68562213 0 0 Z M-18.4375 26.3125 C-18.4375 27.9625 -18.4375 29.6125 -18.4375 31.3125 C-15.26003509 32.90123246 -11.89737798 32.72276221 -8.4375 32.3125 C-5.9779226 30.97419042 -5.9779226 30.97419042 -4.4375 29.3125 C-4.7675 27.9925 -5.0975 26.6725 -5.4375 25.3125 C-6.85183206 25.0888663 -8.26917618 24.88423524 -9.6875 24.6875 C-10.47640625 24.57148438 -11.2653125 24.45546875 -12.078125 24.3359375 C-14.75902459 24.30930605 -16.16444089 24.94657916 -18.4375 26.3125 Z " fill="#0080FF" transform="translate(209.4375,359.6875)"/>
<path d="M0 0 C4.89630598 4.2991955 7.2907064 7.78504918 8.5625 14.25 C8.5625 17.55 8.5625 20.85 8.5625 24.25 C-0.6775 24.25 -9.9175 24.25 -19.4375 24.25 C-16.30574314 30.02260299 -16.30574314 30.02260299 -13.4375 31.25 C-6.80336884 32.04609574 -3.69089553 29.93659336 1.5625 26.25 C3.8725 28.23 6.1825 30.21 8.5625 32.25 C7.64761472 36.25262312 6.03374794 37.86661144 2.6875 40 C-3.17777137 43.5236231 -9.01388482 44.01007134 -15.7109375 42.859375 C-22.15836759 41.14299429 -25.73506009 37.70899521 -29.4375 32.25 C-32.60086335 26.19834836 -32.44542614 18.21531423 -30.78515625 11.68359375 C-28.16919544 5.04825969 -23.9372041 1.07939078 -17.6875 -2.1875 C-11.46760697 -3.26401995 -5.65252875 -2.877651 0 0 Z M-16.375 10.0625 C-18.66617096 11.99144591 -18.66617096 11.99144591 -18.4375 14.25 C-13.4875 14.25 -8.5375 14.25 -3.4375 14.25 C-5.81393144 9.03614827 -5.81393144 9.03614827 -9.8125 8.1875 C-13.49844973 7.94261764 -13.49844973 7.94261764 -16.375 10.0625 Z " fill="#007FFF" transform="translate(383.4375,359.75)"/>
<path d="M0 0 C3.81451476 3.03604236 5.70785649 5.81667425 7.0625 10.4375 C7.54279527 15.94928449 7.441066 21.41158772 7.3125 26.9375 C7.29240494 28.44268458 7.27415948 29.94789505 7.2578125 31.453125 C7.21405298 35.11512737 7.14519216 38.77614578 7.0625 42.4375 C3.4325 42.4375 -0.1975 42.4375 -3.9375 42.4375 C-4.2675 41.7775 -4.5975 41.1175 -4.9375 40.4375 C-6.071875 40.953125 -7.20625 41.46875 -8.375 42 C-13.11982953 43.76356496 -17.06661493 43.77001569 -21.9375 42.4375 C-25.99146526 40.29995468 -28.26197043 38.68670337 -29.9375 34.4375 C-30.65524163 29.4359741 -31.08601705 24.15672487 -27.9375 19.9375 C-22.32077587 15.25689656 -17.14840509 14.08080821 -9.91796875 14.234375 C-7.9375 14.4375 -7.9375 14.4375 -4.9375 15.4375 C-6.05604586 11.71135847 -6.05604586 11.71135847 -8.9375 9.4375 C-13.5853538 9.02435744 -16.18190152 9.64762684 -19.9375 12.4375 C-20.2675 13.0975 -20.5975 13.7575 -20.9375 14.4375 C-24.37345166 12.91041037 -27.05662454 10.83822955 -29.9375 8.4375 C-28.41226671 4.31937011 -25.52701478 1.79727361 -21.9375 -0.5625 C-15.06632318 -3.52653706 -6.78248828 -3.28184917 0 0 Z M-18.9375 27.4375 C-18.43993908 30.19391416 -18.43993908 30.19391416 -16.9375 32.4375 C-10.6225015 32.85203713 -10.6225015 32.85203713 -4.9375 30.4375 C-5.2675 28.7875 -5.5975 27.1375 -5.9375 25.4375 C-12.86884062 24.1160707 -12.86884062 24.1160707 -18.9375 27.4375 Z " fill="#007FFF" transform="translate(426.9375,359.5625)"/>
<path d="M0 0 C4.36021009 3.85320891 6.46444315 7.49664542 7.14160156 13.19897461 C7.14097932 14.5585955 7.11904176 15.91833854 7.078125 17.27734375 C7.07246521 17.9999086 7.06680542 18.72247345 7.06097412 19.4669342 C7.03878257 21.74949586 6.98862549 24.03042198 6.9375 26.3125 C6.91741244 27.87041986 6.89916564 29.4283646 6.8828125 30.98632812 C6.8389753 34.7831715 6.77007421 38.57880957 6.6875 42.375 C3.0575 42.375 -0.5725 42.375 -4.3125 42.375 C-4.33231934 41.58327393 -4.35213867 40.79154785 -4.37255859 39.97583008 C-4.4679716 36.3793924 -4.57758591 32.78352249 -4.6875 29.1875 C-4.7184375 27.94162109 -4.749375 26.69574219 -4.78125 25.41210938 C-4.81992187 24.21005859 -4.85859375 23.00800781 -4.8984375 21.76953125 C-4.9298584 20.66456299 -4.9612793 19.55959473 -4.99365234 18.42114258 C-5.31127182 15.38673354 -6.03496035 13.12955478 -7.3125 10.375 C-10.61817489 9.52112895 -10.61817489 9.52112895 -14.3125 9.375 C-17.55288447 11.67737844 -18.59517845 13.56436013 -19.3125 17.375 C-19.45818403 19.32553764 -19.55909467 21.27965065 -19.62890625 23.234375 C-19.67080078 24.34941406 -19.71269531 25.46445312 -19.75585938 26.61328125 C-19.81483398 28.35158203 -19.81483398 28.35158203 -19.875 30.125 C-19.91818359 31.29933594 -19.96136719 32.47367187 -20.00585938 33.68359375 C-20.11184717 36.58059355 -20.21266916 39.4777815 -20.3125 42.375 C-23.9425 42.375 -27.5725 42.375 -31.3125 42.375 C-31.3125 27.855 -31.3125 13.335 -31.3125 -1.625 C-26.64583333 -1.625 -21.97916667 -1.625 -17.3125 -1.625 C-16.61125 -1.810625 -15.91 -1.99625 -15.1875 -2.1875 C-9.71203018 -3.02072367 -4.9780529 -2.44206369 0 0 Z " fill="#0080FF" transform="translate(472.3125,359.625)"/>
<path d="M0 0 C1.1247287 1.10444301 2.23705264 2.22251486 3.3125 3.375 C1.63097927 7.11520498 -0.37789473 8.93634348 -3.6875 11.375 C-5.97269577 10.27472055 -7.98695448 9.16222971 -10.0625 7.6875 C-13.4749655 5.98126725 -15.08431746 6.22504812 -18.6875 7.375 C-20.94476011 9.26621793 -22.37396424 10.74792849 -23.6875 13.375 C-24.03782356 18.71743433 -24.1436069 22.02286539 -20.6875 26.375 C-16.91874125 28.88750583 -15.15599866 28.90516086 -10.6875 28.375 C-8.35771123 26.91506686 -6.6747801 25.31380985 -4.6875 23.375 C-0.75076356 24.68724548 1.53969294 26.29410327 4.3125 29.375 C2.42192187 34.47956094 -1.69841032 37.42566175 -6.4375 39.6875 C-14.20123183 41.32982789 -20.37624665 40.94439357 -27.41796875 37.07421875 C-32.05577878 33.60184807 -34.87488251 28.81285246 -36.6875 23.375 C-37.24369157 16.75418108 -37.37173318 10.11772538 -33.6875 4.375 C-29.36390189 -0.66472202 -24.79284978 -4.61665213 -18.07421875 -5.56640625 C-10.93222173 -5.74174169 -5.48149015 -4.77451351 0 0 Z " fill="#007FFF" transform="translate(346.6875,362.625)"/>
<path d="M0 0 C3.96 0 7.92 0 12 0 C12 3.63 12 7.26 12 11 C15.3 11 18.6 11 22 11 C22 14.63 22 18.26 22 22 C18.7 22 15.4 22 12 22 C12.14014682 25.3128323 12.28683615 28.62514408 12.4375 31.9375 C12.47681641 32.88302734 12.51613281 33.82855469 12.55664062 34.80273438 C12.59853516 35.70185547 12.64042969 36.60097656 12.68359375 37.52734375 C12.72025146 38.35999756 12.75690918 39.19265137 12.79467773 40.05053711 C12.79367103 42.00338858 12.79367103 42.00338858 14 43 C16.32817964 43.36760731 18.6618385 43.70241581 21 44 C21 47.63 21 51.26 21 55 C8.36949153 55.46779661 8.36949153 55.46779661 3 52 C-0.59790747 45.82736621 -0.35710437 40.06846528 -0.1875 33.0625 C-0.17396484 31.99708984 -0.16042969 30.93167969 -0.14648438 29.83398438 C-0.11134724 27.22212412 -0.06215184 24.61133366 0 22 C-1.98 22 -3.96 22 -6 22 C-6 18.37 -6 14.74 -6 11 C-4.02 11 -2.04 11 0 11 C0 7.37 0 3.74 0 0 Z " fill="#0080FF" transform="translate(153,347)"/>
<path d="M0 0 C3.63 0 7.26 0 11 0 C11 20.46 11 40.92 11 62 C7.37 62 3.74 62 0 62 C0 41.54 0 21.08 0 0 Z " fill="#0080FF" transform="translate(224,340)"/>
<path d="M0 0 C3.96 0 7.92 0 12 0 C12 14.52 12 29.04 12 44 C8.04 44 4.08 44 0 44 C0 29.48 0 14.96 0 0 Z " fill="#0080FF" transform="translate(129,358)"/>
<path d="M0 0 C3.96 0 7.92 0 12 0 C12 14.52 12 29.04 12 44 C8.04 44 4.08 44 0 44 C0 29.48 0 14.96 0 0 Z " fill="#0080FF" transform="translate(60,358)"/>
<path d="M0 0 C1.9375 1 1.9375 1 3 3 C3.46000079 5.76000474 3.50420748 8.24404774 3 11 C1.4375 13.0625 1.4375 13.0625 -1 14 C-4.739729 13.93439072 -7.0603639 13.76345433 -10 11.375 C-11.45331917 7.92336696 -10.92604949 5.57190516 -10 2 C-6.30513897 -0.46324069 -4.36706908 -0.38991688 0 0 Z " fill="#0081FF" transform="translate(139,340)"/>
<path d="M0 0 C1.875 0.3125 1.875 0.3125 3.875 1.375 C5.45933618 4.44465135 5.23748449 6.92931143 4.875 10.3125 C3.2430982 13.03233633 2.01093678 13.27490047 -1.0625 14.125 C-4.24846191 14.32005889 -5.54899418 14.12524484 -8.125 12.3125 C-9.52957737 9.50334526 -9.37395157 7.42439466 -9.125 4.3125 C-7.22664871 -0.19608432 -4.46900058 -0.26288239 0 0 Z " fill="#007EFF" transform="translate(68.125,339.6875)"/>
</svg>
