<svg height="88" viewBox="0 0 512 88" width="512" xmlns="http://www.w3.org/2000/svg"><g fill="none" fill-rule="evenodd" transform="translate(.000173)"><path d="m203.67382 25.8249452c.698786.7284952 1.073908 1.7082263 1.040342 2.7171269v52.2373773c.029126 1.1184667-.389423 2.2022878-1.162735 3.0108701-.773135.8110269-1.854116 1.2558751-2.974152 1.2239311-.627751.0010396-1.251643-.0981222-1.848136-.2937433-.546257-.1683742-1.036823-.4813208-1.41976-.9057091l-33.841694-44.0615178v41.4790235c.03085 1.0121768-.357689 1.9921581-1.073739 2.7082078-.716049.7160494-1.696031 1.1045883-2.708208 1.0737389-1.00238.0384235-1.973365-.3535342-2.668169-1.0770592-.691242-.7274802-1.061622-1.7019328-1.028102-2.7048875v-52.3475311c-.025395-1.1152477.418679-2.1899076 1.223931-2.9619132.753627-.7732416 1.796972-1.1950194 2.876238-1.1627345.679271-.0032786 1.352696.1255868 1.982768.3794187.573308.2218871 1.076376.5939037 1.456478 1.0770593l33.694822 44.1594322v-41.8339632c-.03085-1.012177.357689-1.9921584 1.073739-2.7082079.716049-.7160495 1.696031-1.1045885 2.708207-1.0737391.999707-.0369282 1.96858.349732 2.66817 1.0648201zm69.519284 0c.731937.8137117 1.118249 1.8804607 1.077059 2.9741524v33.0461385c.07009 4.2713147-.967209 8.487978-3.01087 12.2393102-1.935493 3.5391797-4.811545 6.4745319-8.310492 8.4818421-3.625614 2.0801909-7.741343 3.1534923-11.921089 3.108785-4.217199.0666647-8.376816-.9848527-12.05572-3.0475882-3.51484-1.9988719-6.404828-4.9354726-8.34721-8.4818422-2.043661-3.7513322-3.08096-7.9679955-3.01087-12.2393105v-33.0461384c-.031944-1.1200364.412904-2.2010174 1.223931-2.9741524.825681-.807654 1.9418-1.2488078 3.096545-1.2239311 1.088691.0007291 2.130695.4422561 2.888477 1.2239311.802099.7589303 1.246559 1.8211912 1.223931 2.9251952v33.0461382c-.044269 2.8212958.670101 5.6026898 2.068444 8.0534663 2.637118 4.6487869 7.567793 7.5230667 12.912472 7.5271761 2.683213.0190878 5.324688-.6644886 7.661809-1.9827683 2.357781-1.3029746 4.319882-3.2185601 5.67904-5.5444078 1.420835-2.44318 2.148655-5.2275135 2.105161-8.0534663v-33.0461382c-.039761-1.0848419.326871-2.1454564 1.028103-2.9741525.722995-.8093752 1.767006-1.2574488 2.851759-1.223931 1.077005-.024747 2.112192.4169923 2.83952 1.2116918zm66.251386 52.9962142c.516322.7104231.787017 1.5697775.771077 2.4478622.045285 1.1081925-.402943 2.1794595-1.223929 2.9251954-.75748.7159943-1.760487 1.1145701-2.802803 1.1137773-1.339754.0507897-2.609691-.5980841-3.353573-1.7135037l-16.731137-22.3367415-16.351717 22.3000235c-.736649 1.1337324-2.0016 1.8123742-3.353572 1.7991787-.988636.0218555-1.941857-.3683001-2.631451-1.0770592-.684141-.6304322-1.074471-1.5175473-1.07706-2.4478622.018913-1.0363209.385275-2.0362731 1.040342-2.8395199l17.649085-24.0257666-17.73476-23.8421768c-.553756-.6966489-.859532-1.5579881-.868991-2.4478621-.022628-1.104004.421832-2.166265 1.223931-2.9251952.757782-.7816751 1.799785-1.2232021 2.888477-1.2239311.641674.0032722 1.274007.1540269 1.848136.4406152.606679.2876313 1.126169.7310981 1.505435 1.2851276l16.535308 22.2143486 16.376199-21.994041c.722851-1.1189776 1.937735-1.8242467 3.267895-1.8970931 1.037995.0055729 2.025134.4502304 2.717126 1.223931.752023.6718622 1.194621 1.6234455 1.223931 2.6314518-.028951.8842916-.327931 1.738524-.856751 2.4478621l-17.967308 23.9156128zm62.114504-52.9962142c.809614.738316 1.256622 1.7932511 1.223928 2.8884772.029874 1.0805212-.41788 2.1193102-1.223928 2.8395202-.828697.7012315-1.889311 1.0678636-2.974153 1.0281019h-15.323617v48.3085587c.021099 1.1037126-.423113 2.1653809-1.223931 2.925195-1.792118 1.5991851-4.498892 1.5991851-6.291006 0-.797029-.7624229-1.240515-1.8223494-1.223932-2.925195v-48.3085587h-15.286898c-1.087838.0413237-2.149396-.3403114-2.961913-1.0648199-.787048-.7493779-1.2111-1.802811-1.162736-2.8884774-.034648-1.0582106.389183-2.079871 1.162736-2.802802.812517-.7245088 1.874075-1.1061438 2.961913-1.0648201h39.349384c1.091225-.0394185 2.155911.3417654 2.974153 1.0648201z" fill="#2f495e"/><path d="m420.407529 83.4720975c-2.78686-1.5783251-5.105424-3.8673285-6.719381-6.6337064-.478493-.6841073-.750381-1.4912775-.783314-2.3254687-.000607-1.079561.473907-2.1046862 1.297367-2.8028022.700817-.7332318 1.655262-1.1710507 2.66817-1.2239311 1.537684.1436641 2.944861.9249365 3.879859 2.1541188 1.912959 3.1478603 5.349474 5.0477212 9.032611 4.9936385 2.989502.069711 5.87888-1.0789712 8.004511-3.1822207 2.146174-2.0336704 3.336833-4.877036 3.280135-7.8331588v-37.7337941c-.013215-1.1147077.455196-2.180907 1.285126-2.9251953.802395-.7899095 1.884924-1.2299614 3.010872-1.223931 1.137369-.0555072 2.246347.365904 3.059827 1.1627345.777774.7858077 1.198224 1.8568496 1.162736 2.9619131v37.8194696c.032184 3.3898798-.860679 6.7243598-2.582496 9.6445765-1.706323 2.9102192-4.156446 5.3138747-7.098801 6.9641677-3.084407 1.7466276-6.577614 2.6421052-10.12191 2.5947337-3.282765.0347768-6.516635-.7969104-9.375312-2.4111441zm59.189307.6364441c-3.411017-1.2949158-6.540243-3.2356173-9.2162-5.715758-1.103401-.8466137-1.764749-2.1468134-1.79918-3.5371608.013168-1.0575677.454825-2.0645464 1.223932-2.7905625.73251-.7888032 1.763093-1.2330201 2.839519-1.2239311.906808-.0124477 1.783522.325088 2.447863.9424267 2.067448 1.9738087 4.471661 3.5614201 7.098801 4.6876561 2.64248 1.0507042 5.4672 1.5665595 8.31049 1.5176745 3.238292.1024949 6.432503-.7717548 9.167244-2.5090586 2.275536-1.2786061 3.701373-3.6689828 3.745229-6.2787663.042699-2.8036873-1.375965-5.4277562-3.745229-6.9274497-3.437761-2.0187788-7.210292-3.4034224-11.137772-4.0879297-5.923826-1.2239311-10.464611-3.1944601-13.659071-5.9483049-3.19446-2.7538449-4.773332-6.57251-4.773332-11.4437553-.067465-3.1991196.874684-6.3381817 2.69265-8.9714148 1.848667-2.6138815 4.392669-4.6575609 7.343585-5.8993476 3.375118-1.4238036 7.010021-2.128274 10.672678-2.0684435 3.433031-.0218157 6.842974.5623908 10.072954 1.7257428 2.848939.9608589 5.460739 2.5170913 7.661807 4.5652628 1.175568.866874 1.902674 2.2133661 1.982768 3.6717932-.000072 1.037244-.419412 2.0304167-1.162733 2.7538449-.711813.7961727-1.734997 1.2429785-2.802803 1.223931-.721847.0277311-1.426929-.2218947-1.970529-.6976408-1.785649-1.6748953-3.898314-2.9624969-6.205328-3.7819467-2.389554-.9633236-4.93862-1.4698154-7.514937-1.4931961-3.226798-.165935-6.426738.6628876-9.167245 2.3744265-2.128133 1.4101586-3.407765 3.7931424-3.407765 6.3460822 0 2.55294 1.279632 4.9359238 3.407765 6.3460825 3.135059 1.8281756 6.55761 3.1111148 10.12191 3.7941864 3.785296.7449597 7.478668 1.8981129 11.015379 3.4392463 2.669115 1.1802498 4.95135 3.0891835 6.584749 5.5076897 1.654827 2.780132 2.459016 5.9841219 2.313229 9.2162007.047832 3.177119-.93085 6.2848594-2.79056 8.861261-1.956665 2.6567329-4.589744 4.7403728-7.625092 6.03398-3.33653 1.4600048-6.945244 2.1942635-10.587004 2.1541185-3.789252.0705336-7.560767-.5345666-11.137772-1.7869394z" fill="#01c58e"/><path d="m35.7627194 84.3043708c-.0872011-.1542074-.1648625-.3136177-.2325469-.4773332-.469456-1.0860749-.6140017-2.2849536-.4161365-3.4514857h-27.77099546l41.27095506-72.62806835 13.5489168 23.81769805 3.9288185-6.9519282-11.8109347-20.80682785c-.3304614-.5997262-2.325469-3.80642555-5.764715-3.80642555-1.5543925 0-3.7819471.67316208-5.5933652 3.85538281l-41.80948449 73.50929889c-.35494001.6364441-2.08068278 3.977776-.36717932 6.9396891.7833159 1.3463239 2.4478621 2.9496737 6.11965526 2.9496737h35.01666735c-3.6473145 0-5.3363395-1.5788711-6.1196554-2.9496737z" fill="#01c58e"/><path d="m116.272904 77.3646817-34.3557447-60.5233905c-.3549398-.6364441-2.3377081-3.8553828-5.7891937-3.8553828-1.5543925 0-3.7819471.6609228-5.5933649 3.8431435l-4.4428698 7.7842015 3.9532973 6.9519282 6.1196554-10.8317896 33.9885654 59.6421599h-12.9247123c.1653855.9859696.0726194 1.9979648-.2692647 2.9374347-.0720024.2074149-.1621044.4080965-.2692649.5997261l-.1101538.2203076c-1.737982 2.9619131-5.4954504 3.1210242-6.2298089 3.1210242h20.2193406c.746598 0 4.491827-.1591111 6.229809-3.1210242.771077-1.3463243 1.321846-3.6105966-.52629-6.7683386z" fill="#108775"/><path d="m96.5798533 84.1330203.1101538-.2203076c.1071605-.1916296.1972625-.3923112.2692649-.5997261.3418841-.9394699.4346502-1.9514651.2692647-2.9374347-.1904864-1.0633734-.5719814-2.083458-1.1260163-3.0108702l-26.0330135-45.7995001-3.977776-6.9519282-3.9532972 6.9519282-26.0207742 45.7995001c-.5052239.9384292-.8447449 1.9569927-1.0036235 3.0108702-.2094197 1.1629975-.0776414 2.361754.3794188 3.4514857.0676841.1637156.1453455.3231259.2325469.4773332.7833159 1.3463239 2.4478618 2.9496737 6.1196551 2.9496737h48.4676695c.7710766 0 4.528545-.1591111 6.266527-3.1210242zm-30.4881224-45.6159103 23.7932196 41.8584419h-47.5741998z" fill="#2f495e"/></g></svg>